<svg width="415" height="194" viewBox="0 0 415 194" fill="none" xmlns="http://www.w3.org/2000/svg">
<rect width="415" height="194" fill="black"/>
<path fill-rule="evenodd" clip-rule="evenodd" d="M98.0059 57L86.0095 87.0059H108L88 137H38.0059L50.0024 107.006H28L48 57H98.0059ZM53.4976 65.128L39.9964 98.8839H72.5024L74.0071 95.1339L77.2595 87.0118L86.0095 65.128H53.4976ZM50.0024 128.878H82.5024L96.0036 95.1339H95.814L78.0059 107.012H58.7524L50.0024 128.878ZM137.931 102.994C138.34 105.724 139.472 107.682 141.335 108.861C143.194 110.044 145.82 110.633 149.216 110.633C152.2 110.633 154.428 110.309 155.9 109.654C157.372 109.003 158.11 107.965 158.11 106.539V106.415C158.069 105.152 157.547 104.257 156.546 103.726C155.546 103.198 153.614 102.688 150.75 102.197L141.795 100.668C137.953 100.017 134.863 98.5904 132.533 96.3922C130.202 94.1904 128.997 91.3626 128.913 87.8979V87.7742C128.913 83.7418 130.641 80.6046 134.096 78.3628C137.551 76.1209 141.893 75 147.127 75C159.026 75 165.527 79.2763 166.63 87.8324L157.43 90.3982C157.186 87.7087 156.254 85.8963 154.64 84.961C153.026 84.0256 150.542 83.5562 147.189 83.5562C141.711 83.5562 138.972 84.9209 138.972 87.6505C139.012 88.9934 139.574 89.9433 140.659 90.4928C141.74 91.0424 143.796 91.5409 146.824 91.9886L154.859 93.2114C158.826 93.8228 161.992 95.1658 164.366 97.2438C166.736 99.3219 167.942 101.95 167.985 105.127V105.432C167.985 109.669 166.236 112.991 162.741 115.393C159.246 117.799 154.717 119 149.158 119C143.146 119 138.321 117.868 134.684 115.608C131.042 113.348 128.814 109.974 128 105.494L137.934 102.987L137.931 102.994ZM174.425 118.396V75.6184H184.666V118.399H174.425V118.396ZM220.054 100.675L211.222 75.6184H194.301V118.396H203.929V93.4622L203.866 84.8442H204.111L207.179 93.4622L216.562 118.396H228.951L238.271 93.4622L241.398 84.8442H241.642L241.518 93.4622V118.399H251.087V75.6184H234.221L225.452 100.675L222.753 109.414L220.054 100.675ZM282.304 75.6184C287.618 75.6184 291.646 76.8085 294.386 79.1923C297.125 81.5761 298.495 85.0298 298.495 89.5499C298.495 94.07 297.147 97.4328 294.448 99.9986C291.749 102.564 287.702 103.849 282.304 103.849H270.711V118.396H260.715V75.6184H282.304ZM270.711 84.1746V95.2965H282.366C284.411 95.2965 285.894 94.8488 286.811 93.9536C287.731 93.0583 288.191 91.5916 288.191 89.5536C288.191 87.5155 287.72 86.2126 286.782 85.3974C285.839 84.5822 284.367 84.1746 282.366 84.1746H270.711ZM339.034 79.134C336.295 76.7903 332.533 75.6184 327.749 75.6184H304.323V118.399H314.319V102.266H324.502L334.867 118.399H343.176H344.863H353.603L357.285 109.294H378.015L381.635 118.399H392L374.52 75.6184H360.784H360.776L343.822 116.829L333.271 100.919V100.675C336.335 100.675 338.749 99.5546 340.506 97.3127C342.263 95.0745 343.143 92.2613 343.143 88.8803C343.143 84.7241 341.773 81.4778 339.034 79.134ZM331.397 92.9163C330.437 93.6078 328.79 93.9536 326.459 93.9536H314.315V84.1746H326.459C328.79 84.1746 330.437 84.5094 331.397 85.1827C332.358 85.856 332.84 87.0861 332.84 89.004C332.84 90.922 332.358 92.2249 331.397 92.9163ZM360.605 100.552H374.644L370.66 90.8346L367.778 83.2574H367.471L364.589 90.8346L360.605 100.552Z" fill="white"/>
</svg>
